<svg width="24" height="29" viewBox="0 0 24 29" fill="none" xmlns="http://www.w3.org/2000/svg">
<g clip-path="url(#clip0_1103_144)">
<path d="M19.23 18.3185L16.69 17.9704C16.08 17.8864 15.48 18.1385 15.05 18.6547L13.21 20.8635C10.38 19.1348 8.06004 16.3618 6.62004 12.9526L8.47004 10.7318C8.90004 10.2156 9.11004 9.49539 9.04004 8.76312L8.75004 5.73804C8.63004 4.52561 7.78004 3.61328 6.76004 3.61328H5.03004C3.90004 3.61328 2.96004 4.74169 3.03004 6.09817C3.56004 16.3498 10.39 24.5368 18.92 25.173C20.05 25.257 20.99 24.1286 20.99 22.7721V20.6954C21 19.483 20.24 18.4626 19.23 18.3185Z" fill="#FF892E"/>
</g>
<defs>
<clipPath id="clip0_1103_144">
<rect width="24" height="28.8103" fill="white"/>
</clipPath>
</defs>
</svg>
