<svg width="40" height="40" viewBox="0 0 40 40" fill="none" xmlns="http://www.w3.org/2000/svg">
<g clip-path="url(#clip0_1107_161)">
<path d="M27.6499 15H24.9999V6.66667C24.9999 5.75 24.2499 5 23.3333 5H16.6666C15.7499 5 14.9999 5.75 14.9999 6.66667V15H12.3499C10.8666 15 10.1166 16.8 11.1666 17.85L18.8166 25.5C19.4666 26.15 20.5166 26.15 21.1666 25.5L28.8166 17.85C29.8666 16.8 29.1333 15 27.6499 15ZM8.33325 31.6667C8.33325 32.5833 9.08325 33.3333 9.99992 33.3333H29.9999C30.9166 33.3333 31.6666 32.5833 31.6666 31.6667C31.6666 30.75 30.9166 30 29.9999 30H9.99992C9.08325 30 8.33325 30.75 8.33325 31.6667Z" fill="white"/>
</g>
<defs>
<clipPath id="clip0_1107_161">
<rect width="40" height="40" fill="white"/>
</clipPath>
</defs>
</svg>
