<svg width="122" height="20" viewBox="0 0 122 20" fill="none" xmlns="http://www.w3.org/2000/svg">
<path d="M0.59999 15.1801C0.21999 15.1801 -9.74536e-06 14.9601 -9.74536e-06 14.5801V1.66005C-9.74536e-06 1.28005 0.21999 1.06005 0.59999 1.06005H2.95999C3.33999 1.06005 3.55999 1.28005 3.55999 1.66005V6.64005H5.63999L9.43999 1.42005C9.61999 1.16005 9.85999 1.06005 10.18 1.06005H13.04C13.54 1.06005 13.7 1.40005 13.4 1.80005L8.59999 8.10005L13.4 14.4401C13.7 14.8401 13.54 15.1801 13.04 15.1801H10.18C9.85999 15.1801 9.61999 15.0801 9.43999 14.8201L5.63999 9.72005H3.55999V14.5801C3.55999 14.9601 3.33999 15.1801 2.95999 15.1801H0.59999ZM18.155 15.1801C15.055 15.1801 14.015 13.4801 14.015 10.7401V8.32005C14.015 5.66005 15.055 3.94005 18.155 3.94005H20.975C24.075 3.94005 25.115 5.66005 25.115 8.32005V10.1001C25.115 10.4801 24.895 10.7001 24.515 10.7001H17.375V11.1201C17.375 11.8801 17.655 12.0601 18.235 12.0601H23.615C23.995 12.0601 24.215 12.2801 24.215 12.6601V14.5801C24.215 14.9601 23.995 15.1801 23.615 15.1801H18.155ZM17.375 8.40005H21.755V8.00005C21.755 7.24005 21.495 7.06005 20.895 7.06005H18.235C17.635 7.06005 17.375 7.24005 17.375 8.00005V8.40005ZM27.5503 2.80005C27.1703 2.80005 26.9503 2.58005 26.9503 2.20005V0.600053C26.9503 0.220053 27.1703 5.24521e-05 27.5503 5.24521e-05H29.7103C30.0903 5.24521e-05 30.3103 0.220053 30.3103 0.600053V2.20005C30.3103 2.58005 30.0903 2.80005 29.7103 2.80005H27.5503ZM27.5503 15.1801C27.1703 15.1801 26.9503 14.9601 26.9503 14.5801V4.54005C26.9503 4.16005 27.1703 3.94005 27.5503 3.94005H29.7103C30.0903 3.94005 30.3103 4.16005 30.3103 4.54005V14.5801C30.3103 14.9601 30.0903 15.1801 29.7103 15.1801H27.5503ZM39.6548 3.94005C42.7548 3.94005 43.7948 5.64005 43.7948 8.38005V14.5801C43.7948 14.9601 43.5748 15.1801 43.1948 15.1801H41.0348C40.6548 15.1801 40.4348 14.9601 40.4348 14.5801V8.00005C40.4348 7.24005 40.1548 7.06005 39.5748 7.06005H36.8148C36.2348 7.06005 35.9548 7.24005 35.9548 8.00005V14.5801C35.9548 14.9601 35.7348 15.1801 35.3548 15.1801H33.1948C32.8148 15.1801 32.5948 14.9601 32.5948 14.5801V4.54005C32.5948 4.16005 32.8148 3.94005 33.1948 3.94005H35.3548C35.7348 3.94005 35.9548 4.14005 35.9548 4.52005V5.12005C36.4548 4.36005 37.2948 3.94005 38.6148 3.94005H39.6548ZM51.6547 15.1801C51.2747 15.1801 51.0547 14.9601 51.0547 14.5801V1.66005C51.0547 1.28005 51.2747 1.06005 51.6547 1.06005H60.1947C63.3747 1.06005 64.9147 2.94005 64.9147 6.36005V9.96005C64.9147 13.3601 63.3747 15.1801 60.1947 15.1801H51.6547ZM54.6147 11.8201H59.7547C60.6547 11.8201 61.3947 11.6201 61.3947 9.92005V6.38005C61.3947 4.68005 60.7147 4.46005 59.7547 4.46005H54.6147V11.8201ZM70.948 15.1801C67.848 15.1801 66.808 13.4801 66.808 10.7401V8.32005C66.808 5.66005 67.848 3.94005 70.948 3.94005H73.768C76.868 3.94005 77.908 5.66005 77.908 8.32005V10.1001C77.908 10.4801 77.688 10.7001 77.308 10.7001H70.168V11.1201C70.168 11.8801 70.448 12.0601 71.028 12.0601H76.408C76.788 12.0601 77.008 12.2801 77.008 12.6601V14.5801C77.008 14.9601 76.788 15.1801 76.408 15.1801H70.948ZM70.168 8.40005H74.548V8.00005C74.548 7.24005 74.288 7.06005 73.688 7.06005H71.028C70.428 7.06005 70.168 7.24005 70.168 8.00005V8.40005ZM80.2433 15.1801C79.8633 15.1801 79.6433 14.9601 79.6433 14.5801V12.6601C79.6433 12.2801 79.8633 12.0601 80.2433 12.0601H85.5233C85.9633 12.0601 86.3033 11.9601 86.3033 11.5401C86.3033 11.1401 86.0633 11.0401 85.5433 10.9801L82.7233 10.6401C80.2633 10.3401 79.4033 9.40005 79.4033 7.24005C79.4033 4.96005 80.7433 3.94005 83.4233 3.94005H88.6033C88.9833 3.94005 89.2033 4.16005 89.2033 4.54005V6.46005C89.2033 6.84005 88.9833 7.06005 88.6033 7.06005H83.5033C83.1033 7.06005 82.7433 7.12005 82.7433 7.60005C82.7433 8.02005 82.9833 8.12005 83.3833 8.16005L86.1233 8.50005C88.8633 8.84005 89.7033 9.86005 89.7033 11.9401C89.7033 14.2801 88.3833 15.1801 85.5033 15.1801H80.2433ZM92.0425 2.80005C91.6625 2.80005 91.4425 2.58005 91.4425 2.20005V0.600053C91.4425 0.220053 91.6625 5.24521e-05 92.0425 5.24521e-05H94.2025C94.5825 5.24521e-05 94.8025 0.220053 94.8025 0.600053V2.20005C94.8025 2.58005 94.5825 2.80005 94.2025 2.80005H92.0425ZM92.0425 15.1801C91.6625 15.1801 91.4425 14.9601 91.4425 14.5801V4.54005C91.4425 4.16005 91.6625 3.94005 92.0425 3.94005H94.2025C94.5825 3.94005 94.8025 4.16005 94.8025 4.54005V14.5801C94.8025 14.9601 94.5825 15.1801 94.2025 15.1801H92.0425ZM99.387 19.1201C99.007 19.1201 98.787 18.9001 98.787 18.5201V16.6001C98.787 16.2201 99.007 16.0001 99.387 16.0001H104.227C104.807 16.0001 105.087 15.8201 105.087 15.0601V13.0401C104.587 13.7801 103.747 14.2001 102.427 14.2001H100.987C97.887 14.2001 96.847 12.5001 96.847 9.76005V8.32005C96.847 5.66005 97.887 3.94005 100.987 3.94005H102.427C103.747 3.94005 104.587 4.36005 105.087 5.10005V4.54005C105.087 4.16005 105.307 3.94005 105.687 3.94005H107.847C108.227 3.94005 108.447 4.16005 108.447 4.54005V14.6801C108.447 17.4201 107.327 19.1201 104.227 19.1201H99.387ZM101.067 11.0801H104.227C104.807 11.0801 105.087 10.9001 105.087 10.1401V8.00005C105.087 7.24005 104.827 7.06005 104.227 7.06005H101.067C100.467 7.06005 100.207 7.24005 100.207 8.00005V10.1401C100.207 10.9001 100.487 11.0801 101.067 11.0801ZM117.78 3.94005C120.88 3.94005 121.92 5.64005 121.92 8.38005V14.5801C121.92 14.9601 121.7 15.1801 121.32 15.1801H119.16C118.78 15.1801 118.56 14.9601 118.56 14.5801V8.00005C118.56 7.24005 118.28 7.06005 117.7 7.06005H114.94C114.36 7.06005 114.08 7.24005 114.08 8.00005V14.5801C114.08 14.9601 113.86 15.1801 113.48 15.1801H111.32C110.94 15.1801 110.72 14.9601 110.72 14.5801V4.54005C110.72 4.16005 110.94 3.94005 111.32 3.94005H113.48C113.86 3.94005 114.08 4.14005 114.08 4.52005V5.12005C114.58 4.36005 115.42 3.94005 116.74 3.94005H117.78Z" fill="white"/>
</svg>
